<svg id="visual" viewBox="0 0 960 300" width="960" height="300" xmlns="http://www.w3.org/2000/svg" xmlns:xlink="http://www.w3.org/1999/xlink" version="1.1"><rect x="0" y="0" width="960" height="300" fill="#1c1c1c"></rect><path d="M0 120L17.8 123C35.7 126 71.3 132 106.8 131.5C142.3 131 177.7 124 213.2 120.5C248.7 117 284.3 117 320 118.3C355.7 119.7 391.3 122.3 426.8 125C462.3 127.7 497.7 130.3 533.2 130C568.7 129.7 604.3 126.3 640 126.3C675.7 126.3 711.3 129.7 746.8 132.7C782.3 135.7 817.7 138.3 853.2 136.5C888.7 134.7 924.3 128.3 942.2 125.2L960 122L960 0L942.2 0C924.3 0 888.7 0 853.2 0C817.7 0 782.3 0 746.8 0C711.3 0 675.7 0 640 0C604.3 0 568.7 0 533.2 0C497.7 0 462.3 0 426.8 0C391.3 0 355.7 0 320 0C284.3 0 248.7 0 213.2 0C177.7 0 142.3 0 106.8 0C71.3 0 35.7 0 17.8 0L0 0Z" fill="#181a58"></path><path d="M0 96L17.8 97.8C35.7 99.7 71.3 103.3 106.8 103C142.3 102.7 177.7 98.3 213.2 97.8C248.7 97.3 284.3 100.7 320 102.3C355.7 104 391.3 104 426.8 103.8C462.3 103.7 497.7 103.3 533.2 101.3C568.7 99.3 604.3 95.7 640 95.3C675.7 95 711.3 98 746.8 98.2C782.3 98.3 817.7 95.7 853.2 97C888.7 98.3 924.3 103.7 942.2 106.3L960 109L960 0L942.2 0C924.3 0 888.7 0 853.2 0C817.7 0 782.3 0 746.8 0C711.3 0 675.7 0 640 0C604.3 0 568.7 0 533.2 0C497.7 0 462.3 0 426.8 0C391.3 0 355.7 0 320 0C284.3 0 248.7 0 213.2 0C177.7 0 142.3 0 106.8 0C71.3 0 35.7 0 17.8 0L0 0Z" fill="#1d1b48"></path><path d="M0 75L17.8 77.2C35.7 79.3 71.3 83.7 106.8 82.5C142.3 81.3 177.7 74.7 213.2 74.7C248.7 74.7 284.3 81.3 320 82.3C355.7 83.3 391.3 78.7 426.8 76.7C462.3 74.7 497.7 75.3 533.2 77.7C568.7 80 604.3 84 640 83.2C675.7 82.3 711.3 76.7 746.8 75.8C782.3 75 817.7 79 853.2 79.3C888.7 79.7 924.3 76.3 942.2 74.7L960 73L960 0L942.2 0C924.3 0 888.7 0 853.2 0C817.7 0 782.3 0 746.8 0C711.3 0 675.7 0 640 0C604.3 0 568.7 0 533.2 0C497.7 0 462.3 0 426.8 0C391.3 0 355.7 0 320 0C284.3 0 248.7 0 213.2 0C177.7 0 142.3 0 106.8 0C71.3 0 35.7 0 17.8 0L0 0Z" fill="#1f1b39"></path><path d="M0 44L17.8 43.7C35.7 43.3 71.3 42.7 106.8 45.2C142.3 47.7 177.7 53.3 213.2 55.8C248.7 58.3 284.3 57.7 320 55.7C355.7 53.7 391.3 50.3 426.8 48.5C462.3 46.7 497.7 46.3 533.2 46.3C568.7 46.3 604.3 46.7 640 48.8C675.7 51 711.3 55 746.8 57C782.3 59 817.7 59 853.2 57.3C888.7 55.7 924.3 52.3 942.2 50.7L960 49L960 0L942.2 0C924.3 0 888.7 0 853.2 0C817.7 0 782.3 0 746.8 0C711.3 0 675.7 0 640 0C604.3 0 568.7 0 533.2 0C497.7 0 462.3 0 426.8 0C391.3 0 355.7 0 320 0C284.3 0 248.7 0 213.2 0C177.7 0 142.3 0 106.8 0C71.3 0 35.7 0 17.8 0L0 0Z" fill="#1e1c2a"></path><path d="M0 33L17.8 31.8C35.7 30.7 71.3 28.3 106.8 29C142.3 29.7 177.7 33.3 213.2 32.5C248.7 31.7 284.3 26.3 320 24C355.7 21.7 391.3 22.3 426.8 22.5C462.3 22.7 497.7 22.3 533.2 24.2C568.7 26 604.3 30 640 32.3C675.7 34.7 711.3 35.3 746.8 35.5C782.3 35.7 817.7 35.3 853.2 34.2C888.7 33 924.3 31 942.2 30L960 29L960 0L942.2 0C924.3 0 888.7 0 853.2 0C817.7 0 782.3 0 746.8 0C711.3 0 675.7 0 640 0C604.3 0 568.7 0 533.2 0C497.7 0 462.3 0 426.8 0C391.3 0 355.7 0 320 0C284.3 0 248.7 0 213.2 0C177.7 0 142.3 0 106.8 0C71.3 0 35.7 0 17.8 0L0 0Z" fill="#1c1c1c"></path></svg>