<svg id="visual" viewBox="0 0 960 100" width="960" height="100" xmlns="http://www.w3.org/2000/svg" xmlns:xlink="http://www.w3.org/1999/xlink" version="1.1"><rect x="0" y="0" width="960" height="100" fill="#181a58"></rect><path d="M0 68L16 65.7C32 63.3 64 58.7 96 58.8C128 59 160 64 192 65.3C224 66.7 256 64.3 288 62.2C320 60 352 58 384 59C416 60 448 64 480 66.2C512 68.3 544 68.7 576 66.3C608 64 640 59 672 59C704 59 736 64 768 64C800 64 832 59 864 57C896 55 928 56 944 56.5L960 57L960 0L944 0C928 0 896 0 864 0C832 0 800 0 768 0C736 0 704 0 672 0C640 0 608 0 576 0C544 0 512 0 480 0C448 0 416 0 384 0C352 0 320 0 288 0C256 0 224 0 192 0C160 0 128 0 96 0C64 0 32 0 16 0L0 0Z" fill="#181a58"></path><path d="M0 51L16 51.3C32 51.7 64 52.3 96 52.5C128 52.7 160 52.3 192 51.8C224 51.3 256 50.7 288 50C320 49.3 352 48.7 384 48.5C416 48.3 448 48.7 480 48.5C512 48.3 544 47.7 576 48.2C608 48.7 640 50.3 672 50C704 49.7 736 47.3 768 47.3C800 47.3 832 49.7 864 50C896 50.3 928 48.7 944 47.8L960 47L960 0L944 0C928 0 896 0 864 0C832 0 800 0 768 0C736 0 704 0 672 0C640 0 608 0 576 0C544 0 512 0 480 0C448 0 416 0 384 0C352 0 320 0 288 0C256 0 224 0 192 0C160 0 128 0 96 0C64 0 32 0 16 0L0 0Z" fill="#1d1b48"></path><path d="M0 39L16 38.3C32 37.7 64 36.3 96 35.5C128 34.7 160 34.3 192 34.7C224 35 256 36 288 36.7C320 37.3 352 37.7 384 38.5C416 39.3 448 40.7 480 41C512 41.3 544 40.7 576 40.2C608 39.7 640 39.3 672 39.3C704 39.3 736 39.7 768 39.8C800 40 832 40 864 38.8C896 37.7 928 35.3 944 34.2L960 33L960 0L944 0C928 0 896 0 864 0C832 0 800 0 768 0C736 0 704 0 672 0C640 0 608 0 576 0C544 0 512 0 480 0C448 0 416 0 384 0C352 0 320 0 288 0C256 0 224 0 192 0C160 0 128 0 96 0C64 0 32 0 16 0L0 0Z" fill="#1f1b39"></path><path d="M0 26L16 25.8C32 25.7 64 25.3 96 25.3C128 25.3 160 25.7 192 25.7C224 25.7 256 25.3 288 25.2C320 25 352 25 384 24.5C416 24 448 23 480 22.7C512 22.3 544 22.7 576 23.8C608 25 640 27 672 28.3C704 29.7 736 30.3 768 29.8C800 29.3 832 27.7 864 26.7C896 25.7 928 25.3 944 25.2L960 25L960 0L944 0C928 0 896 0 864 0C832 0 800 0 768 0C736 0 704 0 672 0C640 0 608 0 576 0C544 0 512 0 480 0C448 0 416 0 384 0C352 0 320 0 288 0C256 0 224 0 192 0C160 0 128 0 96 0C64 0 32 0 16 0L0 0Z" fill="#1e1c2a"></path><path d="M0 15L16 15.2C32 15.3 64 15.7 96 15C128 14.3 160 12.7 192 12.3C224 12 256 13 288 14.2C320 15.3 352 16.7 384 16C416 15.3 448 12.7 480 11.7C512 10.7 544 11.3 576 12.2C608 13 640 14 672 14.8C704 15.7 736 16.3 768 16.8C800 17.3 832 17.7 864 17.8C896 18 928 18 944 18L960 18L960 0L944 0C928 0 896 0 864 0C832 0 800 0 768 0C736 0 704 0 672 0C640 0 608 0 576 0C544 0 512 0 480 0C448 0 416 0 384 0C352 0 320 0 288 0C256 0 224 0 192 0C160 0 128 0 96 0C64 0 32 0 16 0L0 0Z" fill="#1c1c1c"></path></svg>